<svg width="28" height="24" viewBox="0 0 28 24" fill="none" xmlns="http://www.w3.org/2000/svg">
<g clip-path="url(#clip0_1201_1216)">
<path d="M0 0H28V24H0V0Z" fill="#000066"/>
<path fill-rule="evenodd" clip-rule="evenodd" d="M13.1162 19.625L11.2044 19.815L11.4669 21.985L10.15 20.4L8.83312 21.985L9.09562 19.815L7.18375 19.625L8.83312 18.51L7.77 16.685L9.56375 17.46L10.15 15.375L10.7406 17.46L12.5344 16.685L11.4712 18.51M21.2887 21.625L20.825 20.835L21.6037 21.17L21.8575 20.265L22.1112 21.17L22.89 20.835L22.4306 21.625L23.1481 22.11L22.3169 22.195L22.4306 23.14L21.8619 22.445L21.2844 23.14L21.3981 22.195L20.5669 22.115M21.2844 7.52003L20.825 6.73003L21.6037 7.06503L21.8575 6.16003L22.1112 7.06503L22.89 6.73003L22.4306 7.52003L23.1481 8.01003L22.3169 8.09003L22.4306 9.03503L21.8619 8.34503L21.2844 9.03003L21.3981 8.09003L20.5669 8.01003M16.66 13.25L16.2006 12.46L16.9794 12.795L17.2331 11.89L17.4912 12.795L18.27 12.46L17.8062 13.25L18.5237 13.735L17.6925 13.82L17.8106 14.765L17.2331 14.07L16.6644 14.765L16.7737 13.82L15.9425 13.74M25.4056 11.84L24.9375 11.05L25.7162 11.385L25.97 10.48L26.2281 11.385L27.0069 11.05L26.5475 11.84L27.2606 12.325L26.4294 12.41L26.5431 13.35L25.9744 12.66L25.3969 13.35L25.5106 12.41L24.6794 12.325M23.7125 16L23.2619 16.325L23.3887 15.73L22.9819 15.34L23.5112 15.29L23.7125 14.73L23.9181 15.295L24.4475 15.34L24.0406 15.73L24.1675 16.325" fill="white"/>
<path d="M0 0H14V12H0V0Z" fill="#000066"/>
<path d="M1.64062 0L6.97812 4.525L12.2937 0H14V1.55L8.75 6.025L14 10.475V12H12.25L7 7.525L1.77187 12H0V10.5L5.22812 6.05L0 1.6V0H1.64062Z" fill="white"/>
<path d="M9.275 7.025L14 11V12L8.07187 7.025H9.275ZM5.25 7.525L5.38125 8.4L1.18125 12H0L5.25 7.525ZM14 0V0.075L8.55312 4.775L8.59687 3.675L12.9062 0H14ZM0 0L5.22812 4.4H3.91562L0 1.05V0Z" fill="#C8102E"/>
<path d="M5.27187 0V12H8.77187V0H5.27187ZM0 4V8H14V4H0Z" fill="white"/>
<path d="M0 4.825V7.225H14V4.825H0ZM5.97187 0V12H8.07187V0H5.97187Z" fill="#C8102E"/>
<path opacity="0.4" d="M0.5 3C0.5 1.61929 1.61929 0.5 3 0.5H25C26.3807 0.5 27.5 1.61929 27.5 3V21C27.5 22.3807 26.3807 23.5 25 23.5H3C1.61929 23.5 0.5 22.3807 0.5 21V3Z" stroke="white" stroke-opacity="0.5"/>
</g>
<defs>
<clipPath id="clip0_1201_1216">
<rect width="28" height="24" rx="3" fill="white"/>
</clipPath>
</defs>
</svg>
