<svg width="28" height="24" viewBox="0 0 28 24" fill="none" xmlns="http://www.w3.org/2000/svg">
    <mask id="mask0_1469_52913" style="mask-type:alpha" maskUnits="userSpaceOnUse" x="0" y="0" width="28" height="24">
        <path d="M0 3C0 1.34315 1.34315 0 3 0H25C26.6569 0 28 1.34315 28 3V21C28 22.6569 26.6569 24 25 24H3C1.34315 24 0 22.6569 0 21V3Z" fill="#9BFFE7"/>
    </mask>
    <g mask="url(#mask0_1469_52913)">
        <path d="M3.29395 0H22.2351V24H3.29395V0Z" fill="white"/>
        <path d="M-2.4707 1.96184e-05L6.58812 0V24L-2.4707 24V1.96184e-05ZM21.4072 0L29.8671 1.96184e-05V24L21.4116 24L21.4072 0Z" fill="#D52B1E"/>
        <path d="M8 12.0806L8.62509 11.8871V11.8911C9.00807 11.5403 8.40059 10.4758 8.2069 9.83468C8.77476 9.94758 9.62436 10.2379 9.87528 10.1411C10.1306 10.0363 10.2583 9.58065 10.4475 9.29839L11.9134 10.8185C12.0543 10.8871 12.1775 10.8548 12.2304 10.7258L11.5877 7.53629L12.653 8.08468C12.7234 8.13306 12.807 8.125 12.8907 8.05242L14 6L15.0785 7.97581C15.1401 8.07661 15.2326 8.10887 15.325 8.06855L16.4431 7.49194L15.7388 10.7097C15.7784 10.8387 15.8489 10.8992 16.0161 10.8629L17.5437 9.32258L17.9751 10.0766C18.0851 10.3548 19.7623 9.82661 19.7623 9.82661C19.6742 10.5282 19.0844 11.6371 19.4982 11.9274L20 12.0968L17.1211 14.2944C16.945 14.8911 17.1167 15.0887 17.3103 15.4637L14.1761 15.121L14.3213 17.9839L13.6698 18L13.7447 15.1169L10.6192 15.4798C10.8085 15.1653 11.1034 14.9919 10.8833 14.3992L8 12.0806Z" fill="#D52B1E"/>
    </g>
    <path opacity="0.4" d="M3 0.5H25C26.3807 0.5 27.5 1.61929 27.5 3V21C27.5 22.3807 26.3807 23.5 25 23.5H3C1.61929 23.5 0.5 22.3807 0.5 21V3C0.5 1.61929 1.61929 0.5 3 0.5Z" stroke="white" stroke-opacity="0.5"/>
</svg>
