<svg width="28" height="24" viewBox="0 0 28 24" fill="none" xmlns="http://www.w3.org/2000/svg">
<g clip-path="url(#clip0_1201_1234)">
<path d="M0 0H28V24H0V0Z" fill="#DE2910"/>
<path d="M3.36002 8.88002L5.25 2.40002L7.13997 8.88002L2.10004 4.92002H8.39996L3.36002 8.88002Z" fill="#FFDE00"/>
<path d="M11.5575 2.52418L9.61245 3.01679L10.9099 1.28896L10.7826 3.61439L9.70324 1.55568L11.5575 2.52418Z" fill="#FFDE00"/>
<path d="M13.5205 5.36742L11.5605 4.95934L13.3427 3.94182L12.4363 6.02884L12.14 3.65284L13.5205 5.36742Z" fill="#FFDE00"/>
<path d="M13.2344 9.35618L11.5905 8.07001L13.5808 7.97169L12.0084 9.45473L12.5859 7.14724L13.2344 9.35618Z" fill="#FFDE00"/>
<path d="M10.762 11.962L9.68033 10.05L11.5495 10.8379L9.59789 11.5118L10.9103 9.63823L10.762 11.962Z" fill="#FFDE00"/>
<path opacity="0.4" d="M0.5 3C0.5 1.61929 1.61929 0.5 3 0.5H25C26.3807 0.5 27.5 1.61929 27.5 3V21C27.5 22.3807 26.3807 23.5 25 23.5H3C1.61929 23.5 0.5 22.3807 0.5 21V3Z" stroke="white" stroke-opacity="0.5"/>
</g>
<defs>
<clipPath id="clip0_1201_1234">
<rect width="28" height="24" rx="3" fill="white"/>
</clipPath>
</defs>
</svg>
