<svg width="28" height="24" viewBox="0 0 28 24" fill="none" xmlns="http://www.w3.org/2000/svg">
<mask id="mask0_1204_1156" style="mask-type:alpha" maskUnits="userSpaceOnUse" x="0" y="0" width="28" height="24">
<rect width="27.5625" height="24" rx="3" fill="white"/>
</mask>
<g mask="url(#mask0_1204_1156)">
<rect width="27.5625" height="24" rx="3" fill="white"/>
<mask id="mask1_1204_1156" style="mask-type:luminance" maskUnits="userSpaceOnUse" x="0" y="1" width="28" height="21">
<path d="M0 4C0 2.34315 1.34315 1 3 1H24.5625C26.2194 1 27.5625 2.34315 27.5625 4V19C27.5625 20.6569 26.2194 22 24.5625 22H3C1.34315 22 0 20.6569 0 19V4Z" fill="white"/>
</mask>
<g mask="url(#mask1_1204_1156)">
<path fill-rule="evenodd" clip-rule="evenodd" d="M-1.72266 4C-1.72266 2.34315 -0.37951 1 1.27734 1H26.2852C27.942 1 29.2852 2.34315 29.2852 4V19C29.2852 20.6569 27.942 22 26.2852 22H1.27734C-0.379511 22 -1.72266 20.6569 -1.72266 19V4Z" fill="white"/>
<path d="M13.7836 18.0286C17.3324 18.0286 20.2092 15.1061 20.2092 11.5009C20.2092 7.8958 17.3324 4.97327 13.7836 4.97327C10.2348 4.97327 7.35791 7.8958 7.35791 11.5009C7.35791 15.1061 10.2348 18.0286 13.7836 18.0286Z" fill="#D30000"/>
</g>
</g>
</svg>
