<svg width="28" height="24" viewBox="0 0 28 24" fill="none" xmlns="http://www.w3.org/2000/svg">
<g clip-path="url(#clip0_1201_1224)">
<mask id="mask0_1201_1224" style="mask-type:luminance" maskUnits="userSpaceOnUse" x="0" y="0" width="28" height="24">
<path d="M0 0H28V24H0V0Z" fill="white"/>
</mask>
<g mask="url(#mask0_1201_1224)">
<path fill-rule="evenodd" clip-rule="evenodd" d="M-0.875 0H30.625V24H-0.875V0Z" fill="white"/>
<path fill-rule="evenodd" clip-rule="evenodd" d="M-0.875 0H30.625V12H-0.875V0Z" fill="#DF0000"/>
<path fill-rule="evenodd" clip-rule="evenodd" d="M6.3875 2.01003C5.55879 2.21357 4.81658 2.73675 4.28549 3.49174C3.7544 4.24673 3.46675 5.18756 3.47086 6.15627C3.47496 7.12498 3.77056 8.06258 4.30803 8.81166C4.8455 9.56074 5.5921 10.0757 6.4225 10.27C5.94679 10.4273 5.44859 10.4758 4.95646 10.4126C4.46434 10.3494 3.98797 10.1758 3.55468 9.90169C3.1214 9.62762 2.73972 9.25849 2.43153 8.81547C2.12334 8.37245 1.89471 7.86425 1.75875 7.32003C1.48871 6.22608 1.60865 5.05443 2.09236 4.06126C2.57606 3.06808 3.38417 2.33419 4.34 2.02003C5.04 1.79003 5.6875 1.78503 6.39187 2.01003H6.3875Z" fill="white"/>
<path fill-rule="evenodd" clip-rule="evenodd" d="M5.81875 5.50006L6.03313 6.25006L5.46438 5.79006L4.90438 6.26006L5.11 5.50006L4.55 5.03506L5.24563 5.02506L5.46438 4.27506L5.68313 5.02506H6.37438L5.81875 5.50006ZM6.58438 8.10006L6.80313 8.85506L6.23438 8.39506L5.67 8.86006L5.88 8.10506L5.32 7.63506L6.01563 7.63006L6.23 6.87506L6.44875 7.62506H7.14875L6.58438 8.10006ZM9.14375 8.08006L9.35813 8.84006L8.78938 8.37506L8.22938 8.84006L8.435 8.08506L7.875 7.62006L8.57063 7.61006L8.78938 6.86006L9.00813 7.61006H9.69938L9.14375 8.08006ZM9.905 5.50006L10.1194 6.25506L9.55063 5.79506L8.99063 6.26006L9.20063 5.50506L8.63625 5.03506L9.33625 5.03006L9.54625 4.27506L9.765 5.02506H10.465L9.905 5.50006ZM7.87938 3.78506L8.09813 4.54506L7.52938 4.08006L6.965 4.55006L7.175 3.79006L6.615 3.32006L7.30625 3.31506L7.525 2.56006L7.74375 3.31006H8.44375L7.87938 3.78506Z" fill="white"/>
</g>
<path opacity="0.4" d="M0.5 3C0.5 1.61929 1.61929 0.5 3 0.5H25C26.3807 0.5 27.5 1.61929 27.5 3V21C27.5 22.3807 26.3807 23.5 25 23.5H3C1.61929 23.5 0.5 22.3807 0.5 21V3Z" stroke="white" stroke-opacity="0.5"/>
</g>
<defs>
<clipPath id="clip0_1201_1224">
<rect width="28" height="24" rx="3" fill="white"/>
</clipPath>
</defs>
</svg>
