<svg width="28" height="24" viewBox="0 0 28 24" fill="none" xmlns="http://www.w3.org/2000/svg">
<mask id="mask0_1606_15368" style="mask-type:alpha" maskUnits="userSpaceOnUse" x="0" y="0" width="28" height="24">
<path d="M0 3C0 1.34315 1.34315 0 3 0H25C26.6569 0 28 1.34315 28 3V21C28 22.6569 26.6569 24 25 24H3C1.34315 24 0 22.6569 0 21V3Z" fill="#D9D9D9"/>
</mask>
<g mask="url(#mask0_1606_15368)">
<path d="M-1 0V24H29V0H-1Z" fill="#012169"/>
<path d="M-1 2L29 22L-1 2ZM29 2L-1 22Z" fill="black"/>
<path d="M29 2L-1 22M-1 2L29 22L-1 2Z" stroke="white" stroke-width="4"/>
<path d="M-1 2L29 22L-1 2ZM29 2L-1 22Z" fill="black"/>
<path d="M29 2L-1 22M-1 2L29 22L-1 2Z" stroke="#C8102E" stroke-width="2.66667"/>
<path d="M0 12H28H0Z" fill="black"/>
<path d="M14 0V24M0 12H28" stroke="white" stroke-width="6.66667"/>
<path d="M-1 12H29H-1Z" fill="black"/>
<path d="M14 0V24M-1 12H29" stroke="#C8102E" stroke-width="4"/>
</g>
<path opacity="0.4" d="M0.5 3C0.5 1.61929 1.61929 0.5 3 0.5H25C26.3807 0.5 27.5 1.61929 27.5 3V21C27.5 22.3807 26.3807 23.5 25 23.5H3C1.61929 23.5 0.5 22.3807 0.5 21V3Z" stroke="white" stroke-opacity="0.5"/>
</svg>
