<svg width="28" height="24" viewBox="0 0 28 24" fill="none" xmlns="http://www.w3.org/2000/svg">
    <mask id="mask0_1469_52912" style="mask-type:alpha" maskUnits="userSpaceOnUse" x="0" y="0" width="28" height="24">
        <path d="M0 3C0 1.34315 1.34315 0 3 0H25C26.6569 0 28 1.34315 28 3V21C28 22.6569 26.6569 24 25 24H3C1.34315 24 0 22.6569 0 21V3Z" fill="#9BFFE7"/>
    </mask>
    <g mask="url(#mask0_1469_52912)">
        <rect width="28" height="24" fill="white"/>
        <rect y="5.33337" width="28" height="2.66667" fill="#BD3D44"/>
        <rect y="10.6666" width="28" height="2.66667" fill="#BD3D44"/>
        <rect y="16" width="28" height="2.66667" fill="#BD3D44"/>
        <rect y="21.3334" width="28" height="2.66667" fill="#BD3D44"/>
        <rect width="28" height="2.66667" fill="#BD3D44"/>
        <path fill-rule="evenodd" clip-rule="evenodd" d="M-33.7949 -20.7305H15.0026V13.3359H-33.7949V-20.7305Z" fill="#192F5D"/>
        <path fill-rule="evenodd" clip-rule="evenodd" d="M7.46246 5.26953L7.76626 6.18948H8.72828L7.95192 6.74982L8.24727 7.65304L7.46246 7.09271L6.68609 7.65304L6.98145 6.74146L6.20508 6.18112H7.1671L7.46246 5.26953ZM12.9393 5.26953L13.2346 6.18948H14.2051L13.4203 6.74982L13.7241 7.65304L12.9393 7.09271L12.1544 7.65304L12.4582 6.74146L11.6734 6.18112H12.6439L12.9393 5.26953ZM10.2051 7.57778L10.5004 8.48936H11.4709L10.6861 9.0497L10.9815 9.96965L10.2051 9.40095L9.42027 9.96129L9.71563 9.0497L8.93926 8.48936H9.90128L10.2051 7.57778ZM7.46246 9.88602L7.76626 10.7976H8.72828L7.95192 11.3579L8.24727 12.2695L7.46246 11.7092L6.68609 12.2695L6.98145 11.3496L6.20508 10.7892H7.1671L7.46246 9.88602ZM12.9393 9.88602L13.2346 10.7976H14.2051L13.4203 11.3579L13.7241 12.2695L12.9393 11.7092L12.1544 12.2695L12.4582 11.3496L11.6734 10.7892H12.6439L12.9393 9.88602Z" fill="white"/>
        <path fill-rule="evenodd" clip-rule="evenodd" d="M1.99005 5.26953L2.29385 6.18948H3.25587L2.4795 6.74982L2.77486 7.65304L1.99005 7.09271L1.21368 7.65304L1.50904 6.74146L0.732666 6.18112H1.69469L1.99005 5.26953ZM7.46684 5.26953L7.7622 6.18948H8.73267L7.94786 6.74982L8.25165 7.65304L7.46684 7.09271L6.68203 7.65304L6.98583 6.74146L6.20102 6.18112H7.17149L7.46684 5.26953ZM4.73267 7.57778L5.02802 8.48936H5.99849L5.21368 9.0497L5.50904 9.96965L4.73267 9.40095L3.94786 9.96129L4.24322 9.0497L3.46684 8.48936H4.42887L4.73267 7.57778ZM1.99005 9.88602L2.29385 10.7976H3.25587L2.4795 11.3579L2.77486 12.2695L1.99005 11.7092L1.21368 12.2695L1.50904 11.3496L0.732666 10.7892H1.69469L1.99005 9.88602Z" fill="white"/>
        <path fill-rule="evenodd" clip-rule="evenodd" d="M7.46246 0.660034L7.76626 1.57999H8.72828L7.95192 2.14032L8.24727 3.04355L7.46246 2.48321L6.68609 3.04355L6.98145 2.13196L6.20508 1.57162H7.1671L7.46246 0.660034ZM12.9393 0.660034L13.2346 1.57999H14.2051L13.4203 2.14032L13.7241 3.04355L12.9393 2.48321L12.1544 3.04355L12.4582 2.13196L11.6734 1.57162H12.6439L12.9393 0.660034ZM10.2051 2.96828L10.5004 3.87987H11.4709L10.6861 4.4402L10.9815 5.36015L10.2051 4.79146L9.42027 5.35179L9.71563 4.4402L8.93926 3.87987H9.90128L10.2051 2.96828Z" fill="white"/>
        <path fill-rule="evenodd" clip-rule="evenodd" d="M1.99005 0.660034L2.29385 1.57999H3.25587L2.4795 2.14032L2.77486 3.04355L1.99005 2.48321L1.21368 3.04355L1.50904 2.13196L0.732666 1.57162H1.69469L1.99005 0.660034ZM4.73267 2.96828L5.02802 3.87987H5.99849L5.21368 4.4402L5.50904 5.36015L4.73267 4.79146L3.94786 5.35179L4.24322 4.4402L3.46684 3.87987H4.42887L4.73267 2.96828Z" fill="white"/>
    </g>
    <path opacity="0.4" d="M0.5 3C0.5 1.61929 1.61929 0.5 3 0.5H25C26.3807 0.5 27.5 1.61929 27.5 3V21C27.5 22.3807 26.3807 23.5 25 23.5H3C1.61929 23.5 0.5 22.3807 0.5 21V3Z" stroke="white" stroke-opacity="0.5"/>
</svg>
